<?xml version="1.0" encoding="iso-8859-1"?>
<!-- Generator: Adobe Illustrator 19.0.0, SVG Export Plug-In . SVG Version: 6.00 Build 0)  -->
<svg version="1.1" id="Capa_1" xmlns="http://www.w3.org/2000/svg" xmlns:xlink="http://www.w3.org/1999/xlink" x="0px" y="0px"
	 viewBox="0 0 480.012 480.012" style="enable-background:new 0 0 480.012 480.012;" xml:space="preserve">
<g>
	<g>
		<path d="M128,224.006c-70.692,0-128,57.308-128,128c0.084,70.658,57.342,127.916,128,128c70.692,0,128-57.308,128-128
			S198.692,224.006,128,224.006z M128,464.006c-61.856,0-112-50.144-112-112c0.066-61.828,50.172-111.934,112-112
			c61.856,0,112,50.144,112,112S189.856,464.006,128,464.006z"/>
	</g>
</g>
<g>
	<g>
		<path d="M148.328,348.806l-36.8-9.192c-5.342-1.332-8.592-6.741-7.261-12.083c1.106-4.437,5.089-7.552,9.661-7.557h28.064
			c5.51-0.018,9.99,4.434,10.008,9.944c0,0.019,0,0.037,0,0.056v6.032h16v-6.032c-0.013-14.336-11.632-25.955-25.968-25.968H136v-16
			h-16v16h-6.032c-14.341-0.088-26.039,11.467-26.127,25.808c-0.074,12.037,8.134,22.547,19.831,25.392l36.8,9.192
			c5.342,1.332,8.593,6.741,7.261,12.083c-1.106,4.437-5.089,7.552-9.661,7.557h-28.104c-5.51-0.004-9.972-4.474-9.968-9.984
			c0-0.005,0-0.011,0-0.016v-6.032H88v6.032c0.013,14.336,11.632,25.955,25.968,25.968H120v16h16v-16h6.032
			c14.341,0.088,26.039-11.467,26.127-25.808C168.233,362.16,160.025,351.65,148.328,348.806z"/>
	</g>
</g>
<g>
	<g>
		<path d="M32,352.006h16c0.049-44.163,35.837-79.952,80-80v-16C75.004,256.063,32.057,299.01,32,352.006z"/>
	</g>
</g>
<g>
	<g>
		<path d="M208,352.006c-0.048,44.163-35.837,79.951-80,80v16c52.996-0.057,95.943-43.004,96-96H208z"/>
	</g>
</g>
<g>
	<g>
		<path d="M476.208,105.182L440,82.79V8.006c0-4.418-3.582-8-8-8h-32c-4.418,0-8,3.582-8,8v45.072L308.208,1.206
			c-2.579-1.595-5.837-1.595-8.416,0l-168,104c-3.532,2.177-4.814,6.692-2.952,10.4l16,32c1.969,3.955,6.771,5.566,10.727,3.597
			c0.242-0.12,0.477-0.253,0.705-0.397l11.728-7.44v72.64h16v-82.744L304,57.47l120,75.792v178.744H272v16h160c4.418,0,8-3.582,8-8
			v-176.64l11.728,7.408c1.279,0.806,2.76,1.233,4.272,1.232c0.728,0.001,1.452-0.099,2.152-0.296
			c2.178-0.607,3.997-2.106,5.008-4.128l16-32C481.022,111.874,479.74,107.359,476.208,105.182z M408,16.006h16v56.88l-8-4.952
			l-8-4.952V16.006z M452.8,132.518l-144.528-91.28c-2.61-1.648-5.934-1.648-8.544,0L155.2,132.518l-8.8-17.552L304,17.414
			l157.6,97.552L452.8,132.518z"/>
	</g>
</g>
<g>
	<g>
		<path d="M272,120.006h-32c-4.418,0-8,3.582-8,8v64c0,4.418,3.582,8,8,8h32c4.418,0,8-3.582,8-8v-64
			C280,123.588,276.418,120.006,272,120.006z M264,184.006h-16v-16h16V184.006z M264,152.006h-16v-16h16V152.006z"/>
	</g>
</g>
<g>
	<g>
		<path d="M368,120.006h-32c-4.418,0-8,3.582-8,8v64c0,4.418,3.582,8,8,8h32c4.418,0,8-3.582,8-8v-64
			C376,123.588,372.418,120.006,368,120.006z M360,184.006h-16v-16h16V184.006z M360,152.006h-16v-16h16V152.006z"/>
	</g>
</g>
<g>
	<g>
		<path d="M368,216.006h-32c-4.418,0-8,3.582-8,8v64c0,4.418,3.582,8,8,8h32c4.418,0,8-3.582,8-8v-64
			C376,219.588,372.418,216.006,368,216.006z M360,280.006h-16v-16h16V280.006z M360,248.006h-16v-16h16V248.006z"/>
	</g>
</g>
<g>
	<g>
		<path d="M272,216.006h-32c-4.418,0-8,3.582-8,8v40h32v32h8c4.418,0,8-3.582,8-8v-64C280,219.588,276.418,216.006,272,216.006z
			 M264,248.006h-16v-16h16V248.006z"/>
	</g>
</g>
<g>
	<g>
		<rect x="128" y="40.006" width="16" height="16"/>
	</g>
</g>
<g>
	<g>
		<rect x="160" y="40.006" width="16" height="16"/>
	</g>
</g>
<g>
	<g>
		<rect x="96" y="40.006" width="16" height="16"/>
	</g>
</g>
<g>
	<g>
		<rect x="64" y="40.006" width="16" height="16"/>
	</g>
</g>
<g>
	<g>
		<rect x="32" y="40.006" width="16" height="16"/>
	</g>
</g>
<g>
	<g>
		<rect x="32" y="72.006" width="16" height="16"/>
	</g>
</g>
<g>
	<g>
		<rect x="32" y="104.006" width="16" height="16"/>
	</g>
</g>
<g>
	<g>
		<rect x="32" y="136.006" width="16" height="16"/>
	</g>
</g>
<g>
	<g>
		<rect x="32" y="168.006" width="16" height="16"/>
	</g>
</g>
<g>
	<g>
		<rect x="32" y="200.006" width="16" height="16"/>
	</g>
</g>
<g>
	<g>
		<rect x="328" y="440.006" width="16" height="16"/>
	</g>
</g>
<g>
	<g>
		<rect x="360" y="440.006" width="16" height="16"/>
	</g>
</g>
<g>
	<g>
		<rect x="392" y="440.006" width="16" height="16"/>
	</g>
</g>
<g>
	<g>
		<rect x="392" y="408.006" width="16" height="16"/>
	</g>
</g>
<g>
	<g>
		<rect x="392" y="376.006" width="16" height="16"/>
	</g>
</g>
<g>
	<g>
		<rect x="392" y="344.006" width="16" height="16"/>
	</g>
</g>
<g>
	<g>
		<rect x="296" y="440.006" width="16" height="16"/>
	</g>
</g>
<g>
	<g>
		<rect x="264" y="440.006" width="16" height="16"/>
	</g>
</g>
<g>
</g>
<g>
</g>
<g>
</g>
<g>
</g>
<g>
</g>
<g>
</g>
<g>
</g>
<g>
</g>
<g>
</g>
<g>
</g>
<g>
</g>
<g>
</g>
<g>
</g>
<g>
</g>
<g>
</g>
</svg>
