<?xml version="1.0" encoding="iso-8859-1"?>
<!-- Generator: Adobe Illustrator 19.0.0, SVG Export Plug-In . SVG Version: 6.00 Build 0)  -->
<svg version="1.1" id="Layer_1" xmlns="http://www.w3.org/2000/svg" xmlns:xlink="http://www.w3.org/1999/xlink" x="0px" y="0px"
	 viewBox="0 0 512 512" style="enable-background:new 0 0 512 512;" xml:space="preserve">
<g>
	<g>
		<path d="M503.983,495.967h-9.086V8.017c0-4.427-3.589-8.017-8.017-8.017H281.653c-4.427,0-8.017,3.589-8.017,8.017v60.392H144.835
			c-4.427,0-8.017,3.589-8.017,8.017v111.699H16.568C7.432,188.125,0,195.557,0,204.693v171.023c0,9.136,7.432,16.568,16.568,16.568
			h120.249v103.683h-9.085c-4.427,0-8.017,3.588-8.017,8.017c0,4.428,3.589,8.017,8.017,8.017h376.251
			c4.427,0,8.017-3.588,8.017-8.017C512,499.555,508.411,495.967,503.983,495.967z M273.637,495.967H152.851V392.284h18.172v17.637
			c0,4.427,3.589,8.017,8.017,8.017s8.017-3.589,8.017-8.017v-17.637h18.171v17.637c0,4.427,3.589,8.017,8.017,8.017
			s8.017-3.589,8.017-8.017v-17.637h18.171v17.637c0,4.427,3.589,8.017,8.017,8.017s8.017-3.589,8.017-8.017v-17.637h17.637
			c0.181,0,0.357-0.015,0.534-0.027V495.967z M273.637,342.046h-39.262c12.885-12.46,21.09-31.071,21.09-51.841
			s-8.205-39.381-21.09-51.841h39.262V342.046z M152.852,290.205c0-28.585,19.42-51.841,43.29-51.841s43.29,23.256,43.29,51.841
			s-19.42,51.841-43.29,51.841S152.852,318.79,152.852,290.205z M157.909,342.046H83.679c-3.254-16.866-16.575-30.188-33.441-33.441
			v-36.801c16.866-3.254,30.188-16.575,33.441-33.441h74.23c-12.887,12.461-21.091,31.072-21.091,51.842
			S145.023,329.586,157.909,342.046z M273.637,222.33H76.426c-4.427,0-8.017,3.589-8.017,8.017c0,14.44-11.748,26.188-26.188,26.188
			c-4.427,0-8.017,3.589-8.017,8.017v51.307c0,4.427,3.589,8.017,8.017,8.017c14.44,0,26.188,11.748,26.188,26.188
			c0,4.427,3.589,8.017,8.017,8.017h197.211v18.198c-0.177-0.012-0.354-0.027-0.534-0.027H16.568c-0.295,0-0.534-0.239-0.534-0.534
			V204.693c0-0.295,0.239-0.534,0.534-0.534h256.534c0.181,0,0.357-0.015,0.534-0.027V222.33z M273.637,188.152
			c-0.177-0.012-0.354-0.027-0.534-0.027h-17.637v-17.637c0-4.427-3.589-8.017-8.017-8.017s-8.017,3.589-8.017,8.017v17.637h-18.171
			v-17.637c0-4.427-3.589-8.017-8.017-8.017s-8.017,3.589-8.017,8.017v17.637h-18.171v-17.637c0-4.427-3.589-8.017-8.017-8.017
			s-8.017,3.589-8.017,8.017v17.637h-18.171V84.443h120.785V188.152z M359.148,495.967h-35.273v-43.825h35.273V495.967z
			 M359.148,436.109h-35.273v-18.171h35.273V436.109z M359.148,401.904h-35.273v-43.825h35.273V401.904z M444.66,495.967h-35.273
			v-43.825h35.273V495.967z M444.66,436.109h-35.273v-18.171h35.273V436.109z M444.66,401.904h-35.273v-43.825h35.273V401.904z
			 M478.864,495.967h-18.171V350.063c0-4.427-3.589-8.017-8.017-8.017H401.37c-4.427,0-8.017,3.589-8.017,8.017v145.904h-18.171
			V350.063c0-4.427-3.589-8.017-8.017-8.017h-51.307c-4.427,0-8.017,3.589-8.017,8.017v145.904H289.67V306.772h18.171v9.086
			c0,4.427,3.589,8.017,8.017,8.017h51.307c4.427,0,8.017-3.589,8.017-8.017v-9.086h18.171v9.086c0,4.427,3.589,8.017,8.017,8.017
			h51.307c4.427,0,8.017-3.589,8.017-8.017v-9.086h18.171V495.967z M323.875,307.841v-52.376h35.273v52.376H323.875z
			 M409.386,307.841v-52.376h35.273v52.376H409.386z M478.864,290.739h-18.171v-43.29c0-4.427-3.589-8.017-8.017-8.017H401.37
			c-4.427,0-8.017,3.589-8.017,8.017v43.29h-18.171v-43.29c0-4.427-3.589-8.017-8.017-8.017h-51.307
			c-4.427,0-8.017,3.589-8.017,8.017v43.29H289.67V16.033h189.194V290.739z"/>
	</g>
</g>
<g>
	<g>
		<path d="M42.221,222.287c-4.427,0-8.059,3.632-8.059,8.059s3.632,8.059,8.059,8.059c4.427,0,8.059-3.632,8.059-8.059
			S46.649,222.287,42.221,222.287z"/>
	</g>
</g>
<g>
	<g>
		<path d="M42.221,342.046c-4.427,0-8.059,3.632-8.059,8.059s3.632,8.059,8.059,8.059s8.059-3.632,8.059-8.059
			S46.649,342.046,42.221,342.046z"/>
	</g>
</g>
<g>
	<g>
		<path d="M93.528,265.086c-13.851,0-25.119,11.268-25.119,25.119c0,13.851,11.268,25.119,25.119,25.119
			s25.119-11.268,25.119-25.119C118.647,276.354,107.379,265.086,93.528,265.086z M93.528,299.29c-5.01,0-9.086-4.076-9.086-9.086
			c0-5.01,4.076-9.086,9.086-9.086s9.086,4.076,9.086,9.086C102.614,295.215,98.538,299.29,93.528,299.29z"/>
	</g>
</g>
<g>
	<g>
		<path d="M198.533,282.552c-11.244-3.513-11.471-5.356-11.477-6.696c0.397-0.948,3.651-3.289,9.086-3.289
			c5.524,0,8.749,2.383,9.102,3.331c1.543,4.149,6.156,6.262,10.308,4.72c4.149-1.543,6.263-6.159,4.72-10.308
			c-2.31-6.211-8.39-10.882-16.112-12.807V256c0-4.427-3.589-8.017-8.017-8.017c-4.427,0-8.017,3.589-8.017,8.017v1.505
			c-10.037,2.509-17.102,9.639-17.102,18.27c0,14.979,14.785,19.599,22.728,22.082c11.244,3.513,11.471,5.356,11.477,6.696
			c-0.397,0.948-3.651,3.289-9.086,3.289c-5.524,0-8.749-2.383-9.102-3.331c-1.543-4.151-6.156-6.264-10.308-4.72
			c-4.149,1.543-6.263,6.159-4.72,10.308c2.31,6.211,8.39,10.882,16.112,12.807v1.502c0,4.427,3.589,8.017,8.017,8.017
			s8.017-3.589,8.017-8.017v-1.505c10.037-2.509,17.102-9.639,17.102-18.27C221.261,289.655,206.476,285.035,198.533,282.552z"/>
	</g>
</g>
<g>
	<g>
		<path d="M367.165,34.205h-51.307c-4.427,0-8.017,3.589-8.017,8.017v68.409c0,4.427,3.589,8.017,8.017,8.017h51.307
			c4.427,0,8.017-3.589,8.017-8.017V42.221C375.182,37.794,371.592,34.205,367.165,34.205z M359.148,102.614h-35.273V50.238h35.273
			V102.614z"/>
	</g>
</g>
<g>
	<g>
		<path d="M452.676,34.205H401.37c-4.427,0-8.017,3.589-8.017,8.017v68.409c0,4.427,3.589,8.017,8.017,8.017h51.307
			c4.427,0,8.017-3.589,8.017-8.017V42.221C460.693,37.794,457.104,34.205,452.676,34.205z M444.66,102.614h-35.273V50.238h35.273
			V102.614z"/>
	</g>
</g>
<g>
	<g>
		<path d="M367.165,136.818h-51.307c-4.427,0-8.017,3.589-8.017,8.017v68.409c0,4.427,3.589,8.017,8.017,8.017h51.307
			c4.427,0,8.017-3.589,8.017-8.017v-68.409C375.182,140.408,371.592,136.818,367.165,136.818z M359.148,205.228h-35.273v-52.376
			h35.273V205.228z"/>
	</g>
</g>
<g>
	<g>
		<path d="M452.676,136.818H401.37c-4.427,0-8.017,3.589-8.017,8.017v68.409c0,4.427,3.589,8.017,8.017,8.017h51.307
			c4.427,0,8.017-3.589,8.017-8.017v-68.409C460.693,140.408,457.104,136.818,452.676,136.818z M444.66,205.228h-35.273v-52.376
			h35.273V205.228z"/>
	</g>
</g>
<g>
	<g>
		<path d="M247.449,102.614c-4.427,0-8.017,3.589-8.017,8.017v25.653c0,4.427,3.589,8.017,8.017,8.017s8.017-3.589,8.017-8.017
			V110.63C255.466,106.203,251.876,102.614,247.449,102.614z"/>
	</g>
</g>
<g>
	<g>
		<path d="M213.244,102.614c-4.427,0-8.017,3.589-8.017,8.017v25.653c0,4.427,3.589,8.017,8.017,8.017s8.017-3.589,8.017-8.017
			V110.63C221.261,106.203,217.672,102.614,213.244,102.614z"/>
	</g>
</g>
<g>
	<g>
		<path d="M179.04,102.614c-4.427,0-8.017,3.589-8.017,8.017v25.653c0,4.427,3.589,8.017,8.017,8.017s8.017-3.589,8.017-8.017
			V110.63C187.056,106.203,183.467,102.614,179.04,102.614z"/>
	</g>
</g>
<g>
	<g>
		<path d="M247.449,436.109c-4.427,0-8.017,3.589-8.017,8.017v25.653c0,4.427,3.589,8.017,8.017,8.017s8.017-3.589,8.017-8.017
			v-25.653C255.466,439.698,251.876,436.109,247.449,436.109z"/>
	</g>
</g>
<g>
	<g>
		<path d="M213.244,436.109c-4.427,0-8.017,3.589-8.017,8.017v25.653c0,4.427,3.589,8.017,8.017,8.017s8.017-3.589,8.017-8.017
			v-25.653C221.261,439.698,217.672,436.109,213.244,436.109z"/>
	</g>
</g>
<g>
	<g>
		<path d="M179.04,436.109c-4.427,0-8.017,3.589-8.017,8.017v25.653c0,4.427,3.589,8.017,8.017,8.017s8.017-3.589,8.017-8.017
			v-25.653C187.056,439.698,183.467,436.109,179.04,436.109z"/>
	</g>
</g>
<g>
</g>
<g>
</g>
<g>
</g>
<g>
</g>
<g>
</g>
<g>
</g>
<g>
</g>
<g>
</g>
<g>
</g>
<g>
</g>
<g>
</g>
<g>
</g>
<g>
</g>
<g>
</g>
<g>
</g>
</svg>
