<svg id="Layer_3" enable-background="new 0 0 64 64" height="512" viewBox="0 0 64 64" width="512" xmlns="http://www.w3.org/2000/svg"><g><g><path d="m32 62c-8.284 0-15.784-3.358-21.213-8.787l-3.787 3.787v-11h11s-3.678 3.678-3.678 3.678c4.524 4.524 10.774 7.322 17.678 7.322" fill="#f5b953"/></g><g><path d="m32 2c8.284 0 15.784 3.358 21.213 8.787l3.787-3.787v11h-11s3.678-3.678 3.678-3.678c-4.524-4.524-10.774-7.322-17.678-7.322" fill="#f5b953"/></g><g><circle cx="32" cy="32" fill="#f5b953" r="16"/></g><g><circle cx="32" cy="32" fill="#fff" r="12"/></g><g><path d="m32 39c-2.206 0-4-1.794-4-4h2c0 1.103.897 2 2 2s2-.897 2-2-.897-2-2-2c-2.206 0-4-1.794-4-4s1.794-4 4-4 4 1.794 4 4h-2c0-1.103-.897-2-2-2s-2 .897-2 2 .897 2 2 2c2.206 0 4 1.794 4 4s-1.794 4-4 4z"/></g><g><path d="m31 23h2v3h-2z"/></g><g><path d="m31 38h2v3h-2z"/></g><g><path d="m21 32h-2c0-7.168 5.832-13 13-13v2c-6.065 0-11 4.935-11 11z"/></g><g><path d="m32 45v-2c6.065 0 11-4.935 11-11h2c0 7.168-5.832 13-13 13z"/></g><g><path d="m14.72 15.345-1.439-1.389c2.385-2.474 5.184-4.423 8.319-5.792l.8 1.832c-2.894 1.265-5.478 3.065-7.68 5.349z"/></g><g><path d="m24.321 9.255-.642-1.895c.678-.229 1.378-.434 2.082-.606l.479 1.941c-.65.16-1.295.349-1.919.56z"/></g><g><path d="m28.158 8.306-.316-1.975c.697-.111 1.397-.195 2.08-.249l.156 1.994c-.63.049-1.276.126-1.92.23z"/></g><g><path d="m3 32h-2c0-17.094 13.907-31 31-31 7.947 0 15.437 2.97 21.202 8.384l3.091-3.091c.286-.287.714-.374 1.09-.217.373.154.617.52.617.924v11c0 .553-.448 1-1 1h-11c-.404 0-.769-.243-.924-.617s-.069-.804.217-1.09l2.956-2.956c-4.441-4.094-10.173-6.337-16.249-6.337v-2c6.945 0 13.474 2.704 18.385 7.615.391.391.391 1.023 0 1.414l-1.971 1.971h7.586v-7.586l-2.08 2.08c-.375.375-1.039.375-1.414 0-5.477-5.477-12.759-8.494-20.506-8.494-15.991 0-29 13.01-29 29z"/></g><g><path d="m42.4 55.836-.8-1.832c2.894-1.265 5.478-3.064 7.681-5.349l1.439 1.389c-2.386 2.474-5.184 4.423-8.32 5.792z"/></g><g><path d="m38.239 57.246-.479-1.941c.649-.16 1.294-.349 1.918-.56l.642 1.895c-.677.229-1.377.433-2.081.606z"/></g><g><path d="m34.078 57.918-.156-1.994c.63-.049 1.276-.126 1.92-.229l.316 1.975c-.697.11-1.397.194-2.08.248z"/></g><g><path d="m32 63c-7.947 0-15.437-2.97-21.202-8.384l-3.091 3.091c-.286.286-.716.373-1.09.217-.373-.154-.617-.52-.617-.924v-11c0-.553.448-1 1-1h11c.404 0 .769.243.924.617s.069.804-.217 1.09l-2.956 2.956c4.441 4.094 10.173 6.337 16.249 6.337v2c-6.945 0-13.474-2.704-18.385-7.615-.391-.391-.391-1.023 0-1.414l1.971-1.971h-7.586v7.586l2.08-2.08c.375-.375 1.039-.375 1.414 0 5.477 5.477 12.759 8.494 20.506 8.494 15.991 0 29-13.01 29-29h2c0 17.094-13.907 31-31 31z"/></g><g><path d="m32 49c-9.374 0-17-7.626-17-17s7.626-17 17-17 17 7.626 17 17-7.626 17-17 17zm0-32c-8.271 0-15 6.729-15 15s6.729 15 15 15 15-6.729 15-15-6.729-15-15-15z"/></g></g></svg>